<?xml version="1.0" encoding="utf-8"?>
<svg version="1.1" xmlns:xlink="http://www.w3.org/1999/xlink" width="363px" height="89px" xmlns="http://www.w3.org/2000/svg">
  <g transform="matrix(1 0 0 1 -115 -174 )">
    <path d="M 115 174  L 478 174  L 478 263  L 115 263  L 115 174  " fill-rule="nonzero" fill="#cccccc" stroke="none" />
    <path d="M 121 180  L 472 180  L 472 257  L 121 257  L 121 180  " fill-rule="nonzero" fill="#ffffff" stroke="none" />
    <path d="M 310.435 200.7  C 306.697 200.7  303.76 197.763  303.76 194.025  C 303.76 190.287  306.697 187.35  310.435 187.35  C 314.173 187.35  317.11 190.287  317.11 194.025  C 317.11 197.763  314.173 200.7  310.435 200.7  " fill-rule="nonzero" fill="#cccccc" stroke="none" />
    <path d="M 123 255  L 123 214.85  L 209.75 196.6  L 331.2 244.261157024793  L 400.6 207.55  L 470 244.261157024793  L 470 255  L 123 255  " fill-rule="nonzero" fill="#169bd5" stroke="none" />
  </g>
</svg>