<?xml version="1.0" encoding="utf-8"?>
<svg version="1.1" xmlns:xlink="http://www.w3.org/1999/xlink" width="12px" height="12px" viewBox="262 332  12 12" xmlns="http://www.w3.org/2000/svg">
  <path d="M 268 332  C 271.36 332  274 334.64  274 338  C 274 341.36  271.36 344  268 344  C 264.64 344  262 341.36  262 338  C 262 334.64  264.64 332  268 332  Z " fill-rule="nonzero" fill="#ffffff" stroke="none" />
  <path d="M 268 332.5  C 271.08 332.5  273.5 334.92  273.5 338  C 273.5 341.08  271.08 343.5  268 343.5  C 264.92 343.5  262.5 341.08  262.5 338  C 262.5 334.92  264.92 332.5  268 332.5  Z " stroke-width="1" stroke="#797979" fill="none" />
  <path d="M 268 341  C 266.32 341  265 339.68  265 338  C 265 336.32  266.32 335  268 335  C 269.68 335  271 336.32  271 338  C 271 339.68  269.68 341  268 341  " fill-rule="nonzero" fill="#797979" stroke="none" />
</svg>