<?xml version="1.0" encoding="utf-8"?>
<svg version="1.1" xmlns:xlink="http://www.w3.org/1999/xlink" width="12px" height="12px" viewBox="262 277  12 12" xmlns="http://www.w3.org/2000/svg">
  <path d="M 268 277  C 271.36 277  274 279.64  274 283  C 274 286.36  271.36 289  268 289  C 264.64 289  262 286.36  262 283  C 262 279.64  264.64 277  268 277  Z " fill-rule="nonzero" fill="#ffffff" stroke="none" />
  <path d="M 268 277.5  C 271.08 277.5  273.5 279.92  273.5 283  C 273.5 286.08  271.08 288.5  268 288.5  C 264.92 288.5  262.5 286.08  262.5 283  C 262.5 279.92  264.92 277.5  268 277.5  Z " stroke-width="1" stroke="#797979" fill="none" />
  <path d="M 268 286  C 266.32 286  265 284.68  265 283  C 265 281.32  266.32 280  268 280  C 269.68 280  271 281.32  271 283  C 271 284.68  269.68 286  268 286  " fill-rule="nonzero" fill="#797979" stroke="none" />
</svg>