<?xml version="1.0" encoding="utf-8"?>
<svg version="1.1" xmlns:xlink="http://www.w3.org/1999/xlink" width="104px" height="26px" xmlns="http://www.w3.org/2000/svg">
  <g transform="matrix(1 0 0 1 -838 -532 )">
    <path d="M 839 542  A 9 9 0 0 1 848 533 L 932 533  A 9 9 0 0 1 941 542 L 941 548  A 9 9 0 0 1 932 557 L 848 557  A 9 9 0 0 1 839 548 L 839 542  Z " fill-rule="nonzero" fill="#ffffff" stroke="none" />
    <path d="M 838.5 542  A 9.5 9.5 0 0 1 848 532.5 L 932 532.5  A 9.5 9.5 0 0 1 941.5 542 L 941.5 548  A 9.5 9.5 0 0 1 932 557.5 L 848 557.5  A 9.5 9.5 0 0 1 838.5 548 L 838.5 542  Z " stroke-width="1" stroke-dasharray="17,8" stroke="#e4e4e4" fill="none" stroke-dashoffset="0.5" />
  </g>
</svg>