<?xml version="1.0" encoding="utf-8"?>
<svg version="1.1" xmlns:xlink="http://www.w3.org/1999/xlink" width="104px" height="29px" xmlns="http://www.w3.org/2000/svg">
  <g transform="matrix(1 0 0 1 -838 -701 )">
    <path d="M 839 711  A 9 9 0 0 1 848 702 L 932 702  A 9 9 0 0 1 941 711 L 941 720  A 9 9 0 0 1 932 729 L 848 729  A 9 9 0 0 1 839 720 L 839 711  Z " fill-rule="nonzero" fill="#ffffff" stroke="none" />
    <path d="M 838.5 711  A 9.5 9.5 0 0 1 848 701.5 L 932 701.5  A 9.5 9.5 0 0 1 941.5 711 L 941.5 720  A 9.5 9.5 0 0 1 932 729.5 L 848 729.5  A 9.5 9.5 0 0 1 838.5 720 L 838.5 711  Z " stroke-width="1" stroke-dasharray="17,8" stroke="#e4e4e4" fill="none" stroke-dashoffset="0.5" />
  </g>
</svg>