<?xml version="1.0" encoding="utf-8"?>
<svg version="1.1" xmlns:xlink="http://www.w3.org/1999/xlink" width="66px" height="66px" xmlns="http://www.w3.org/2000/svg">
  <g transform="matrix(1 0 0 1 -94 -301 )">
    <path d="M 94 301  L 160 301  L 160 367  L 94 367  L 94 301  " fill-rule="nonzero" fill="#cccccc" stroke="none" />
    <path d="M 99 306  L 155 306  L 155 362  L 99 362  L 99 306  " fill-rule="nonzero" fill="#ffffff" stroke="none" />
    <path d="M 133.27 320.8  C 130.498 320.8  128.32 318.622  128.32 315.85  C 128.32 313.078  130.498 310.9  133.27 310.9  C 136.042 310.9  138.22 313.078  138.22 315.85  C 138.22 318.622  136.042 320.8  133.27 320.8  " fill-rule="nonzero" fill="#cccccc" stroke="none" />
    <path d="M 101 361  L 101 331.85  L 114.25 318.6  L 132.8 329.2  L 143.4 326.55  L 154 329.2  L 154 361  L 101 361  " fill-rule="nonzero" fill="#169bd5" stroke="none" />
  </g>
</svg>