<?xml version="1.0" encoding="utf-8"?>
<svg version="1.1" xmlns:xlink="http://www.w3.org/1999/xlink" width="177px" height="66px" xmlns="http://www.w3.org/2000/svg">
  <g transform="matrix(1 0 0 1 -199 -124 )">
    <path d="M 199 124  L 376 124  L 376 190  L 199 190  L 199 124  " fill-rule="nonzero" fill="#cccccc" stroke="none" />
    <path d="M 204 129  L 371 129  L 371 185  L 204 185  L 204 129  " fill-rule="nonzero" fill="#ffffff" stroke="none" />
    <path d="M 295.99 143.8  C 293.218 143.8  291.04 141.622  291.04 138.85  C 291.04 136.078  293.218 133.9  295.99 133.9  C 298.762 133.9  300.94 136.078  300.94 138.85  C 300.94 141.622  298.762 143.8  295.99 143.8  " fill-rule="nonzero" fill="#cccccc" stroke="none" />
    <path d="M 206 184  L 206 154.85  L 247 141.6  L 304.4 172.142372881356  L 337.2 149.55  L 370 172.142372881356  L 370 184  L 206 184  " fill-rule="nonzero" fill="#169bd5" stroke="none" />
  </g>
</svg>