<?xml version="1.0" encoding="utf-8"?>
<svg version="1.1" xmlns:xlink="http://www.w3.org/1999/xlink" width="16px" height="16px" xmlns="http://www.w3.org/2000/svg">
  <g transform="matrix(1 0 0 1 -171 -110 )">
    <path d="M 179 110  C 183.48 110  187 113.52  187 118  C 187 122.48  183.48 126  179 126  C 174.52 126  171 122.48  171 118  C 171 113.52  174.52 110  179 110  Z " fill-rule="nonzero" fill="#ffffff" stroke="none" />
    <path d="M 179 110.5  C 183.2 110.5  186.5 113.8  186.5 118  C 186.5 122.2  183.2 125.5  179 125.5  C 174.8 125.5  171.5 122.2  171.5 118  C 171.5 113.8  174.8 110.5  179 110.5  Z " stroke-width="1" stroke="#ff0000" fill="none" />
  </g>
</svg>