<?xml version="1.0" encoding="utf-8"?>
<svg version="1.1" xmlns:xlink="http://www.w3.org/1999/xlink" width="12px" height="12px" viewBox="256 235  12 12" xmlns="http://www.w3.org/2000/svg">
  <path d="M 262 235  C 265.36 235  268 237.64  268 241  C 268 244.36  265.36 247  262 247  C 258.64 247  256 244.36  256 241  C 256 237.64  258.64 235  262 235  Z " fill-rule="nonzero" fill="#ffffff" stroke="none" />
  <path d="M 262 235.5  C 265.08 235.5  267.5 237.92  267.5 241  C 267.5 244.08  265.08 246.5  262 246.5  C 258.92 246.5  256.5 244.08  256.5 241  C 256.5 237.92  258.92 235.5  262 235.5  Z " stroke-width="1" stroke="#797979" fill="none" />
  <path d="M 262 244  C 260.32 244  259 242.68  259 241  C 259 239.32  260.32 238  262 238  C 263.68 238  265 239.32  265 241  C 265 242.68  263.68 244  262 244  " fill-rule="nonzero" fill="#797979" stroke="none" />
</svg>