<?xml version="1.0" encoding="utf-8"?>
<svg version="1.1" xmlns:xlink="http://www.w3.org/1999/xlink" width="12px" height="12px" viewBox="256 421  12 12" xmlns="http://www.w3.org/2000/svg">
  <path d="M 262 421  C 265.36 421  268 423.64  268 427  C 268 430.36  265.36 433  262 433  C 258.64 433  256 430.36  256 427  C 256 423.64  258.64 421  262 421  Z " fill-rule="nonzero" fill="#ffffff" stroke="none" />
  <path d="M 262 421.5  C 265.08 421.5  267.5 423.92  267.5 427  C 267.5 430.08  265.08 432.5  262 432.5  C 258.92 432.5  256.5 430.08  256.5 427  C 256.5 423.92  258.92 421.5  262 421.5  Z " stroke-width="1" stroke="#797979" fill="none" />
  <path d="M 262 430  C 260.32 430  259 428.68  259 427  C 259 425.32  260.32 424  262 424  C 263.68 424  265 425.32  265 427  C 265 428.68  263.68 430  262 430  " fill-rule="nonzero" fill="#797979" stroke="none" />
</svg>